<svg width="187" height="39" viewBox="0 0 187 39" fill="none" xmlns="http://www.w3.org/2000/svg">
<path d="M49.1251 30.4463C49.1226 30.3265 49.1559 30.2087 49.2207 30.1078C49.2856 30.007 49.3791 29.9278 49.4893 29.8803C49.5995 29.8328 49.7214 29.8192 49.8394 29.8412C49.9575 29.8632 50.0662 29.9198 50.1518 30.0038C50.2374 30.0878 50.296 30.1954 50.32 30.3128C50.3441 30.4301 50.3325 30.552 50.2868 30.6628C50.2411 30.7736 50.1633 30.8683 50.0634 30.9347C49.9635 31.0012 49.846 31.0364 49.726 31.0359C49.5681 31.0369 49.4162 30.9754 49.3036 30.8649C49.191 30.7544 49.1268 30.6039 49.1251 30.4463ZM49.2062 31.7745H50.2448V36.8207H49.2026L49.2062 31.7745Z" fill="white"/>
<path d="M54.2578 31.7753H55.2476V32.6197H55.2725C55.5489 32.0439 56.0844 31.6888 56.8622 31.6888C57.9773 31.6888 58.6131 32.3989 58.6131 33.5552V36.8205H57.5736V33.7575C57.5736 32.9996 57.2179 32.582 56.4972 32.582C55.7766 32.582 55.2992 33.0999 55.2992 33.8817V36.8251H54.2578V31.7753Z" fill="white"/>
<path d="M62.5654 31.7753H63.5552V32.6197H63.5792C63.8556 32.0439 64.3911 31.6888 65.1689 31.6888C66.284 31.6888 66.9198 32.3989 66.9198 33.5552V36.8205H65.8831V33.7575C65.8831 32.9996 65.5274 32.582 64.8067 32.582C64.086 32.582 63.6086 33.0999 63.6086 33.8817V36.8251H62.5654V31.7753Z" fill="white"/>
<path d="M70.6523 34.2985C70.6523 32.6777 71.6089 31.6843 73.0484 31.6843C74.4879 31.6843 75.4445 32.6777 75.4445 34.2985C75.4445 35.9192 74.4925 36.9172 73.0484 36.9172C71.6043 36.9172 70.6523 35.9238 70.6523 34.2985ZM74.3911 34.2985C74.3911 33.1809 73.8622 32.5379 73.0503 32.5379C72.2384 32.5379 71.7094 33.1818 71.7094 34.2985C71.7094 35.4151 72.2384 36.0636 73.0503 36.0636C73.8622 36.0636 74.3911 35.4207 74.3911 34.2985Z" fill="white"/>
<path d="M81.5709 36.8206H80.4568L78.6357 31.7754H79.7416L81.0097 35.8088H81.0291L82.2981 31.7754H83.3837L81.5709 36.8206Z" fill="white"/>
<path d="M86.623 35.3867C86.623 34.5046 87.3004 33.9628 88.5021 33.8957L89.8845 33.8138V33.4256C89.8845 32.8645 89.5048 32.5288 88.8708 32.5288C88.2708 32.5288 87.8957 32.8167 87.8045 33.2647H86.8249C86.8829 32.3531 87.6617 31.6816 88.9104 31.6816C90.1361 31.6816 90.9194 32.3255 90.9194 33.3373V36.8143H89.9241V35.9864H89.9001C89.6071 36.5475 88.9684 36.9063 88.3049 36.9063C87.3151 36.9072 86.623 36.2936 86.623 35.3867ZM89.8863 34.9314V34.5331L88.6413 34.6104C88.022 34.6536 87.6709 34.9268 87.6709 35.3582C87.6709 35.7896 88.0395 36.0876 88.5924 36.0876C89.3186 36.0876 89.8863 35.5881 89.8863 34.9314Z" fill="white"/>
<path d="M96.2209 30.5816V31.7773H97.1812V32.5978H96.2209V35.3794C96.2209 35.8154 96.4126 36.0122 96.8356 36.0122C96.9497 36.013 97.0637 36.005 97.1766 35.9883V36.8088C96.9867 36.844 96.7937 36.86 96.6006 36.8566C95.5767 36.8566 95.1777 36.4684 95.1777 35.4943V32.596H94.4404V31.7755H95.1777V30.5797L96.2209 30.5816Z" fill="white"/>
<path d="M100.937 30.4463C100.934 30.3267 100.968 30.2091 101.033 30.1086C101.097 30.008 101.191 29.9291 101.301 29.8818C101.411 29.8345 101.533 29.821 101.65 29.8431C101.768 29.8652 101.877 29.9218 101.962 30.0057C102.047 30.0896 102.106 30.197 102.13 30.3142C102.154 30.4314 102.142 30.553 102.096 30.6636C102.051 30.7742 101.973 30.8687 101.873 30.935C101.774 31.0013 101.656 31.0364 101.537 31.0359C101.379 31.0366 101.227 30.975 101.115 30.8646C101.002 30.7541 100.938 30.6037 100.937 30.4463ZM101.018 31.7745H102.055V36.8207H101.018V31.7745Z" fill="white"/>
<path d="M105.844 34.2985C105.844 32.6777 106.8 31.6843 108.24 31.6843C109.679 31.6843 110.636 32.6777 110.636 34.2985C110.636 35.9192 109.684 36.9172 108.24 36.9172C106.796 36.9172 105.844 35.9238 105.844 34.2985ZM109.582 34.2985C109.582 33.1809 109.054 32.5379 108.242 32.5379C107.43 32.5379 106.901 33.1818 106.901 34.2985C106.901 35.4151 107.43 36.0636 108.242 36.0636C109.054 36.0636 109.582 35.4207 109.582 34.2985Z" fill="white"/>
<path d="M114.395 31.7753H115.384V32.6197H115.408C115.685 32.0439 116.22 31.6888 116.999 31.6888C118.113 31.6888 118.75 32.3989 118.75 33.5552V36.8205H117.707V33.7575C117.707 32.9996 117.351 32.582 116.63 32.582C115.91 32.582 115.432 33.0999 115.432 33.8817V36.8251H114.395V31.7753Z" fill="white"/>
<path d="M124.592 31.6843C125.716 31.6843 126.504 32.3126 126.537 33.2094H125.562C125.514 32.7495 125.144 32.4735 124.562 32.4735C124 32.4735 123.626 32.7495 123.626 33.145C123.626 33.4568 123.876 33.6684 124.399 33.7972L125.25 33.994C126.264 34.2387 126.653 34.6223 126.653 35.3655C126.653 36.2853 125.793 36.92 124.553 36.92C123.355 36.92 122.564 36.3009 122.482 35.3756H123.511C123.592 35.8594 123.972 36.128 124.601 36.128C125.231 36.128 125.61 35.8695 125.61 35.4621C125.61 35.1401 125.419 34.9626 124.89 34.8283L123.986 34.6085C123.073 34.3877 122.612 33.9131 122.612 33.2076C122.612 32.3034 123.41 31.6843 124.592 31.6843Z" fill="white"/>
<path d="M140.121 34.2985C140.121 35.8953 139.281 36.9071 138.012 36.9071C137.286 36.9071 136.709 36.5521 136.421 35.9873H136.397V38.4865H135.359V31.7717H136.364V32.6401H136.383C136.681 32.0596 137.262 31.6908 137.992 31.6908C139.275 31.6945 140.121 32.7017 140.121 34.2985ZM139.055 34.2985C139.055 33.2435 138.541 32.5674 137.719 32.5674C136.926 32.5674 136.392 33.2573 136.392 34.2985C136.392 35.3397 136.921 36.0296 137.719 36.0296C138.541 36.0296 139.056 35.3581 139.056 34.2985H139.055Z" fill="white"/>
<path d="M146.244 36.8206H145.13L143.309 31.7754H144.414L145.683 35.8088H145.702L146.971 31.7754H148.057L146.244 36.8206Z" fill="white"/>
<path d="M152.945 30.5816V31.7773H153.906V32.5978H152.945V35.3794C152.945 35.8154 153.137 36.0122 153.559 36.0122C153.674 36.013 153.788 36.005 153.901 35.9883V36.8088C153.711 36.8439 153.518 36.86 153.324 36.8566C152.3 36.8566 151.902 36.4684 151.902 35.4943V32.596H151.165V31.7755H151.902V30.5797L152.945 30.5816Z" fill="white"/>
<path d="M157.855 36.2457C157.855 36.1214 157.892 36 157.962 35.8966C158.031 35.7933 158.129 35.7128 158.244 35.6653C158.359 35.6177 158.486 35.6053 158.608 35.6295C158.73 35.6537 158.842 35.7136 158.93 35.8014C159.018 35.8893 159.078 36.0012 159.102 36.1231C159.127 36.245 159.114 36.3713 159.066 36.4861C159.019 36.6009 158.938 36.699 158.835 36.768C158.731 36.8371 158.609 36.8739 158.485 36.8739C158.402 36.8745 158.32 36.8587 158.243 36.8273C158.167 36.796 158.097 36.7497 158.038 36.6913C157.98 36.6328 157.934 36.5633 157.902 36.4868C157.871 36.4103 157.855 36.3283 157.855 36.2457Z" fill="white"/>
<path d="M163.283 29.9008H164.321V36.8206H163.283V29.9008Z" fill="white"/>
<path d="M169.686 30.5816V31.7773H170.647V32.5978H169.686V35.3794C169.686 35.8154 169.878 36.0122 170.301 36.0122C170.416 36.013 170.53 36.005 170.642 35.9883V36.8088C170.452 36.844 170.259 36.8601 170.065 36.8566C169.043 36.8566 168.644 36.4684 168.644 35.4943V32.596H167.906V31.7755H168.644V30.5797L169.686 30.5816Z" fill="white"/>
<path d="M174.104 34.2984C174.104 32.7062 174.95 31.6944 176.218 31.6944C176.943 31.6944 177.52 32.0623 177.804 32.6142H177.823V29.9008H178.867V36.8206H177.853V35.9652H177.834C177.536 36.541 176.959 36.9098 176.225 36.9098C174.95 36.9071 174.104 35.8907 174.104 34.2984ZM175.165 34.2984C175.165 35.3627 175.679 36.0296 176.501 36.0296C177.299 36.0296 177.832 35.3535 177.832 34.2984C177.832 33.2434 177.299 32.5673 176.501 32.5673C175.679 32.5673 175.165 33.2388 175.165 34.2984Z" fill="white"/>
<path d="M183.028 36.2457C183.028 36.1214 183.065 36 183.134 35.8966C183.204 35.7933 183.302 35.7128 183.417 35.6653C183.532 35.6177 183.658 35.6053 183.781 35.6295C183.903 35.6537 184.015 35.7136 184.103 35.8014C184.191 35.8893 184.251 36.0012 184.275 36.1231C184.299 36.245 184.287 36.3713 184.239 36.4861C184.192 36.6009 184.111 36.699 184.007 36.768C183.904 36.8371 183.782 36.8739 183.658 36.8739C183.575 36.8744 183.493 36.8585 183.416 36.8271C183.34 36.7957 183.27 36.7494 183.212 36.691C183.153 36.6326 183.107 36.5631 183.075 36.4867C183.044 36.4102 183.028 36.3283 183.028 36.2457Z" fill="white"/>
<path d="M0 0.834351H26.9513C29.8843 0.834351 32.6971 1.99727 34.771 4.06728C36.845 6.13729 38.0101 8.94482 38.0101 11.8723V38.8232H11.0588C8.12584 38.8232 5.31299 37.6602 3.23905 35.5902C1.16512 33.5202 0 30.7127 0 27.7852L0 0.834351Z" fill="white"/>
<path d="M26.6208 3.34912H11.3144C6.42479 3.34912 2.46094 7.30548 2.46094 12.1859V27.4633C2.46094 32.3437 6.42479 36.3 11.3144 36.3H26.6208C31.5104 36.3 35.4743 32.3437 35.4743 27.4633V12.1859C35.4743 7.30548 31.5104 3.34912 26.6208 3.34912Z" fill="#212121"/>
<path d="M15.2643 21.3831C15.2643 22.3296 15.3049 23.2403 15.7712 24.0727C15.8747 24.2522 16.0131 24.4092 16.1784 24.5345C16.3436 24.6598 16.5323 24.7508 16.7333 24.8021C17.4885 25.0415 18.2982 25.0502 19.0584 24.827C19.3704 24.7432 19.6574 24.5851 19.8946 24.3663C20.1319 24.1474 20.3124 23.8743 20.4205 23.5705C20.6776 22.8972 20.697 22.1907 20.767 21.4852C20.8656 20.5157 20.9228 19.5306 21.1486 18.5887C21.5411 16.9496 22.6793 15.8605 24.1096 15.0612C25.1334 14.4881 26.2651 14.2618 27.4272 14.2076C28.2972 14.1671 29.1708 14.2002 30.0638 14.2002V21.0575C29.7496 21.098 29.4381 21.1339 29.1284 21.1798C28.3709 21.2939 27.8788 21.7253 27.7258 22.4676C27.5756 23.1961 27.4926 23.9393 27.3728 24.6752C27.0282 26.7908 26.2402 28.6801 24.5731 30.1242C23.4672 31.0854 22.1549 31.5959 20.7274 31.813C19.1988 32.061 17.6421 32.0848 16.1067 31.8839C12.5476 31.3871 9.57918 28.5771 8.95712 25.0514C8.77989 24.0438 8.68741 23.0233 8.68065 22.0003C8.65208 17.3543 8.67144 12.7101 8.66406 8.06221C8.66406 7.78626 8.73871 7.70807 9.0161 7.70899C11.0141 7.71911 13.012 7.70899 15.0063 7.70899C15.0819 7.70899 15.1565 7.72095 15.257 7.73015V14.4274C15.3915 14.4375 15.5021 14.4522 15.6118 14.4522C16.3905 14.4522 17.1683 14.4596 17.9461 14.4522C18.1544 14.4522 18.2336 14.5111 18.2336 14.7282C18.2281 16.8548 18.2281 18.9815 18.2336 21.1081C18.2336 21.3086 18.1664 21.3712 17.9673 21.3684C17.1803 21.3592 16.3923 21.3684 15.6044 21.3684C15.4993 21.3684 15.3961 21.3767 15.2643 21.3831Z" fill="white"/>
<path d="M54.1197 10.694H50.5376C50.5196 10.6915 50.5013 10.6932 50.4842 10.699C50.467 10.7048 50.4514 10.7145 50.4386 10.7274C50.4258 10.7402 50.4162 10.7558 50.4105 10.773C50.4048 10.7902 50.4032 10.8085 50.4058 10.8264V19.5988C50.4058 20.526 50.6156 21.1938 51.0352 21.6022C51.4549 22.0106 52.1073 22.2145 52.9927 22.2139H53.9539C54.175 22.2139 54.2856 22.3252 54.2856 22.545V24.598C54.2856 24.8188 54.175 24.9292 53.9539 24.9292C53.2461 24.9724 52.7383 24.9954 52.4287 24.9954C50.7477 24.9954 49.4818 24.6919 48.6309 24.0848C47.78 23.4777 47.356 22.3577 47.3591 20.7247V10.8264C47.3615 10.8084 47.3598 10.7902 47.354 10.773C47.3482 10.7558 47.3385 10.7402 47.3256 10.7274C47.3128 10.7146 47.2971 10.7049 47.2799 10.6991C47.2627 10.6933 47.2444 10.6915 47.2264 10.694H45.199C44.9778 10.694 44.8672 10.5845 44.8672 10.3628V8.41003C44.8672 8.19019 44.9778 8.07889 45.199 8.07889H47.2264C47.2444 8.08132 47.2627 8.07957 47.2799 8.07377C47.2971 8.06797 47.3128 8.05829 47.3256 8.04547C47.3385 8.03265 47.3482 8.01704 47.354 7.99986C47.3598 7.98269 47.3615 7.9644 47.3591 7.94643V4.04085C47.3591 3.8201 47.4688 3.70972 47.69 3.70972H50.0787C50.2989 3.70972 50.4104 3.8201 50.4104 4.04085V7.94643C50.4078 7.96435 50.4094 7.98262 50.4151 7.99981C50.4208 8.017 50.4304 8.03263 50.4432 8.04548C50.456 8.05832 50.4716 8.06802 50.4888 8.07382C50.5059 8.07962 50.5242 8.08136 50.5422 8.07889H54.1243C54.3455 8.07889 54.4561 8.19019 54.4561 8.41003V10.3628C54.4552 10.5845 54.3409 10.694 54.1197 10.694Z" fill="white"/>
<path d="M71.7311 17.4472C71.7311 17.668 71.6205 17.7784 71.3994 17.7784H60.8198C60.8017 17.7757 60.7833 17.7774 60.766 17.7831C60.7487 17.7888 60.733 17.7985 60.7201 17.8114C60.7072 17.8242 60.6975 17.8399 60.6918 17.8572C60.686 17.8744 60.6844 17.8928 60.6871 17.9108C60.6871 18.6614 60.7534 19.2351 60.8861 19.6318C61.1041 20.48 61.6295 21.2174 62.3606 21.7014C63.1022 22.1963 64.0367 22.4437 65.164 22.4437C66.8007 22.4437 68.0602 21.7692 68.9425 20.4201C69.0531 20.2006 69.1968 20.1675 69.3738 20.3208L71.2639 21.5791C71.4187 21.7115 71.4519 21.855 71.3634 22.0096C70.7441 23.0017 69.8653 23.7851 68.7268 24.3597C67.5884 24.9343 66.3025 25.2231 64.8691 25.2262C63.2545 25.2262 61.8946 24.8733 60.7893 24.1675C59.6841 23.4617 58.8547 22.4575 58.3011 21.155C57.7703 19.8526 57.5049 18.2745 57.5049 16.4207C57.5049 14.8098 57.6278 13.5852 57.8735 12.7469C58.2716 11.2237 59.0676 10.0209 60.2613 9.13844C61.455 8.25602 62.9016 7.81604 64.601 7.81849C66.8342 7.81849 68.5035 8.37591 69.6088 9.49073C70.714 10.6056 71.3898 12.2441 71.6362 14.4063C71.7267 15.4173 71.7583 16.4326 71.7311 17.4472ZM62.2454 11.2734C61.6245 11.75 61.1811 12.4202 60.9856 13.1774C60.8111 13.7808 60.7109 14.4032 60.6871 15.0308C60.6844 15.0488 60.686 15.0672 60.6918 15.0845C60.6975 15.1018 60.7072 15.1174 60.7201 15.1303C60.733 15.1432 60.7487 15.1529 60.766 15.1586C60.7833 15.1643 60.8017 15.1659 60.8198 15.1633H68.4144C68.4324 15.1659 68.4509 15.1643 68.4682 15.1586C68.4855 15.1529 68.5012 15.1432 68.5141 15.1303C68.527 15.1174 68.5366 15.1018 68.5424 15.0845C68.5481 15.0672 68.5497 15.0488 68.5471 15.0308C68.5029 14.3023 68.4365 13.7615 68.3481 13.4083C68.1548 12.5923 67.6939 11.8641 67.0385 11.3396C66.386 10.822 65.5735 10.5626 64.601 10.5614C63.6499 10.5614 62.8647 10.7987 62.2454 11.2734Z" fill="white"/>
<path d="M78.1988 23.9154C77.0045 23.0692 76.1861 21.9173 75.7437 20.4596C75.412 19.4448 75.2461 18.1095 75.2461 16.4538C75.2461 14.9318 75.412 13.5968 75.7437 12.4489C76.1574 11.075 77.0291 9.88355 78.2145 9.0722C79.4199 8.23639 80.8517 7.81848 82.5099 7.81848C84.1681 7.81848 85.6165 8.23792 86.8551 9.0768C88.0925 9.91568 88.8994 10.975 89.2761 12.2548C89.4084 12.6067 89.4975 12.9733 89.5415 13.3466C89.5415 13.5239 89.4419 13.6342 89.2429 13.6778L86.7546 14.0457H86.6883C86.5335 14.0457 86.4229 13.9464 86.3565 13.7477L86.257 13.2188C86.0801 12.4682 85.65 11.839 84.9668 11.3313C84.2836 10.8236 83.4542 10.5697 82.4786 10.5697C81.5275 10.5697 80.7205 10.8236 80.0576 11.3313C79.4004 11.8315 78.9431 12.5489 78.7674 13.3549C78.5684 14.1521 78.4688 15.2004 78.4688 16.4998C78.4688 17.7802 78.5684 18.8175 78.7674 19.6116C78.988 20.4946 79.4245 21.19 80.077 21.6977C80.7294 22.2055 81.5294 22.4541 82.4767 22.4437C83.4499 22.4437 84.2848 22.1901 84.9815 21.683C85.6545 21.2103 86.1225 20.5001 86.2911 19.6962C86.3019 19.6857 86.3093 19.6722 86.3123 19.6574C86.3152 19.6426 86.3136 19.6273 86.3077 19.6134C86.3019 19.5995 86.3003 19.5842 86.3033 19.5695C86.3062 19.5547 86.3136 19.5412 86.3243 19.5306V19.3982C86.3328 19.3594 86.3496 19.3229 86.3735 19.2912C86.3975 19.2595 86.428 19.2333 86.463 19.2145C86.4979 19.1956 86.5366 19.1845 86.5763 19.1819C86.616 19.1793 86.6557 19.1853 86.6929 19.1995L89.1811 19.5969C89.3581 19.6419 89.4465 19.7293 89.4465 19.8618V19.9942C89.4352 20.245 89.3791 20.4917 89.2807 20.7227C88.9047 22.0718 88.0977 23.1532 86.8597 23.9669C85.6217 24.7807 84.1733 25.1888 82.5145 25.1912C80.8317 25.1925 79.3932 24.7672 78.1988 23.9154Z" fill="white"/>
<path d="M99.8367 16.4677H94.792V17.7701H99.8367V16.4677Z" fill="white"/>
<path d="M106.939 24.8289C105.933 24.4315 105.153 23.8854 104.601 23.1907C104.065 22.5435 103.772 21.7305 103.771 20.8911V20.5278C103.771 20.307 103.882 20.1966 104.103 20.1966H106.491C106.712 20.1966 106.823 20.307 106.823 20.5278V20.6961C106.823 21.313 107.161 21.8535 107.837 22.3177C108.512 22.7819 109.369 23.0137 110.407 23.0131C111.401 23.0131 112.208 22.7985 112.828 22.3693C113.447 21.94 113.757 21.3939 113.757 20.731C113.757 20.0908 113.469 19.6107 112.894 19.2906C112.319 18.9705 111.39 18.6332 110.108 18.2788C109.03 17.9882 107.971 17.6281 106.939 17.2008C106.111 16.8534 105.373 16.321 104.783 15.6444C104.197 14.9699 103.904 14.1037 103.904 13.0459C103.904 11.5674 104.484 10.3922 105.645 9.52021C106.806 8.64821 108.348 8.21252 110.272 8.21314C111.554 8.21314 112.687 8.41734 113.672 8.82574C114.657 9.23414 115.414 9.80229 115.944 10.5302C116.468 11.239 116.747 12.0986 116.74 12.9797V13.079C116.74 13.2998 116.628 13.4102 116.408 13.4102H114.086C113.865 13.4102 113.755 13.2998 113.755 13.079V12.9797C113.755 12.3401 113.44 11.8051 112.809 11.3746C112.179 10.9441 111.322 10.7295 110.239 10.7307C109.266 10.7307 108.475 10.9183 107.868 11.2936C107.26 11.6689 106.956 12.1764 106.956 12.8159C106.956 13.4561 107.249 13.9418 107.835 14.2729C108.421 14.6041 109.366 14.9558 110.671 15.328C111.756 15.6172 112.824 15.966 113.871 16.3729C114.705 16.7031 115.449 17.2246 116.043 17.8952C116.64 18.5698 116.939 19.4473 116.938 20.5278C116.938 22.0283 116.347 23.2198 115.164 24.1022C113.981 24.9846 112.406 25.4261 110.438 25.4268C109.111 25.4255 107.945 25.2262 106.939 24.8289Z" fill="white"/>
<path d="M134.417 17.7453C134.417 17.966 134.306 18.0755 134.085 18.0755H123.505C123.487 18.0731 123.469 18.0748 123.451 18.0806C123.434 18.0864 123.418 18.0961 123.406 18.1089C123.393 18.1217 123.383 18.1373 123.377 18.1545C123.371 18.1717 123.37 18.19 123.372 18.2079C123.372 18.9585 123.439 19.5325 123.571 19.9299C123.789 20.7778 124.315 21.5148 125.046 21.9986C125.783 22.4953 126.717 22.7436 127.848 22.7436C129.484 22.7436 130.744 22.0706 131.627 20.7246C131.737 20.5038 131.88 20.4707 132.057 20.6253L133.948 21.8827C134.102 22.0151 134.135 22.1586 134.048 22.3131C133.428 23.3065 132.549 24.0899 131.411 24.6633C130.273 25.2366 128.985 25.5236 127.547 25.5242C125.932 25.5242 124.572 25.171 123.467 24.4646C122.362 23.7582 121.532 22.754 120.979 21.4522C120.448 20.1509 120.183 18.5731 120.183 16.7188C120.183 15.1084 120.305 13.8835 120.551 13.044C120.949 11.522 121.745 10.3192 122.939 9.43557C124.133 8.55192 125.581 8.11071 127.284 8.11194C129.517 8.11194 131.187 8.66905 132.292 9.78326C133.397 10.8975 134.073 12.5363 134.319 14.6997C134.41 15.7122 134.443 16.7291 134.417 17.7453ZM124.931 11.5714C124.311 12.048 123.867 12.7177 123.671 13.4745C123.496 14.078 123.396 14.7004 123.372 15.328C123.37 15.346 123.371 15.3643 123.377 15.3816C123.383 15.3989 123.392 15.4146 123.405 15.4274C123.418 15.4403 123.434 15.45 123.451 15.4557C123.468 15.4614 123.487 15.4631 123.505 15.4604H131.1C131.118 15.4631 131.137 15.4614 131.154 15.4557C131.171 15.45 131.187 15.4403 131.2 15.4274C131.213 15.4146 131.223 15.3989 131.228 15.3816C131.234 15.3643 131.236 15.346 131.233 15.328C131.213 14.7827 131.148 14.24 131.038 13.7054C130.845 12.8891 130.383 12.1608 129.727 11.6367C129.075 11.1179 128.262 10.8585 127.29 10.8585C126.336 10.8592 125.55 11.0968 124.931 11.5714Z" fill="white"/>
<path d="M150.27 9.71705C151.332 10.7657 151.862 12.1837 151.862 13.9712V24.8951C151.862 25.1159 151.751 25.2262 151.531 25.2262H149.008C148.787 25.2262 148.677 25.1159 148.677 24.8951V14.6004C148.677 13.4966 148.356 12.6029 147.714 11.9191C147.073 11.2354 146.222 10.8932 145.161 10.8926C144.121 10.8926 143.27 11.2348 142.607 11.9191C141.944 12.6035 141.612 13.4862 141.612 14.5673V24.8951C141.612 25.1159 141.501 25.2262 141.28 25.2262H138.76C138.538 25.2262 138.428 25.1159 138.428 24.8951V8.70617C138.428 8.48541 138.538 8.37503 138.76 8.37503H141.28C141.501 8.37503 141.612 8.48541 141.612 8.70617V9.90194C141.61 9.92142 141.614 9.94091 141.623 9.95838C141.632 9.97585 141.645 9.99066 141.662 10.0013C141.695 10.0234 141.722 10.0132 141.744 9.96817C142.694 8.75522 144.098 8.14845 145.957 8.14783C147.771 8.14599 149.209 8.66907 150.27 9.71705Z" fill="white"/>
<path d="M158.843 24.8289C157.837 24.4315 157.058 23.8854 156.505 23.1907C155.97 22.5435 155.676 21.7305 155.676 20.8911V20.5278C155.676 20.307 155.786 20.1966 156.008 20.1966H158.395C158.617 20.1966 158.727 20.307 158.727 20.5278V20.6961C158.727 21.313 159.065 21.8535 159.741 22.3177C160.417 22.7819 161.273 23.0137 162.311 23.0131C163.305 23.0131 164.112 22.7985 164.732 22.3693C165.352 21.94 165.662 21.3939 165.661 20.731C165.661 20.0908 165.373 19.6107 164.798 19.2906C164.223 18.9705 163.295 18.6332 162.012 18.2788C160.934 17.9882 159.875 17.6281 158.843 17.2008C158.015 16.8534 157.277 16.321 156.688 15.6444C156.102 14.9699 155.808 14.1037 155.808 13.0459C155.808 11.5674 156.389 10.3922 157.549 9.52021C158.71 8.64821 160.252 8.21252 162.177 8.21314C163.458 8.21314 164.591 8.41734 165.576 8.82574C166.561 9.23414 167.318 9.80229 167.848 10.5302C168.372 11.239 168.652 12.0986 168.644 12.9797V13.079C168.644 13.2998 168.533 13.4102 168.312 13.4102H165.991C165.769 13.4102 165.659 13.2998 165.659 13.079V12.9797C165.659 12.3401 165.344 11.8051 164.714 11.3746C164.083 10.9441 163.227 10.7295 162.143 10.7307C161.17 10.7307 160.38 10.9183 159.772 11.2936C159.165 11.6689 158.86 12.1764 158.86 12.8159C158.86 13.4561 159.153 13.9418 159.739 14.2729C160.325 14.6041 161.27 14.957 162.575 15.3317C163.66 15.6196 164.728 15.9672 165.775 16.3729C166.609 16.7031 167.353 17.2246 167.947 17.8952C168.545 18.5698 168.843 19.4473 168.843 20.5278C168.843 22.0283 168.252 23.2198 167.068 24.1022C165.885 24.9846 164.31 25.4261 162.342 25.4268C161.015 25.4255 159.849 25.2262 158.843 24.8289Z" fill="white"/>
<path d="M186.322 17.7453C186.322 17.9661 186.211 18.0755 185.99 18.0755H175.41C175.391 18.0723 175.372 18.0736 175.354 18.0793C175.336 18.085 175.319 18.0951 175.306 18.1085C175.293 18.122 175.283 18.1385 175.277 18.1566C175.271 18.1747 175.27 18.1939 175.274 18.2126C175.274 18.9632 175.34 19.5371 175.473 19.9345C175.691 20.7824 176.216 21.5195 176.947 22.0032C177.684 22.4999 178.619 22.7482 179.75 22.7482C181.386 22.7482 182.645 22.0752 183.528 20.7292C183.639 20.5085 183.781 20.4754 183.959 20.6299L185.849 21.8873C186.004 22.0197 186.034 22.1632 185.949 22.3178C185.33 23.3112 184.451 24.0946 183.312 24.6679C182.174 25.2413 180.886 25.5283 179.448 25.5289C177.834 25.5289 176.474 25.1757 175.368 24.4692C174.263 23.7628 173.434 22.7587 172.88 21.4568C172.349 20.1556 172.084 18.5778 172.084 16.7234C172.084 15.1131 172.207 13.8882 172.453 13.0487C172.851 11.5267 173.647 10.3239 174.841 9.44021C176.036 8.55656 177.484 8.11535 179.186 8.11658C181.419 8.11658 183.088 8.67369 184.194 9.7879C185.3 10.9021 185.976 12.5409 186.222 14.7044C186.313 15.7153 186.347 16.7306 186.322 17.7453ZM176.84 11.5714C176.219 12.048 175.776 12.7178 175.579 13.4746C175.405 14.078 175.305 14.7004 175.281 15.328C175.278 15.346 175.28 15.3644 175.286 15.3817C175.291 15.3989 175.301 15.4146 175.314 15.4275C175.327 15.4403 175.343 15.45 175.36 15.4558C175.377 15.4615 175.396 15.4631 175.414 15.4605H183.009C183.027 15.4631 183.046 15.4615 183.063 15.4558C183.08 15.45 183.096 15.4403 183.109 15.4275C183.122 15.4146 183.131 15.3989 183.137 15.3817C183.143 15.3644 183.145 15.346 183.142 15.328C183.121 14.7829 183.054 14.2404 182.943 13.7064C182.75 12.89 182.288 12.1617 181.632 11.6377C180.98 11.1189 180.167 10.8595 179.195 10.8595C178.239 10.8595 177.455 11.0968 176.84 11.5714Z" fill="white"/>
</svg>
