<svg width="215" height="47" viewBox="0 0 215 47" fill="none" xmlns="http://www.w3.org/2000/svg">
<g clip-path="url(#clip0_1971_56871)">
<path d="M56.1803 34.819C56.1774 34.682 56.2155 34.5472 56.2896 34.4319C56.3638 34.3166 56.4708 34.226 56.5968 34.1717C56.7229 34.1174 56.8623 34.1018 56.9972 34.1269C57.1322 34.1521 57.2566 34.2168 57.3545 34.3129C57.4524 34.409 57.5193 34.532 57.5468 34.6663C57.5743 34.8005 57.5611 34.9399 57.5088 35.0666C57.4565 35.1933 57.3676 35.3016 57.2534 35.3776C57.1391 35.4536 57.0048 35.4939 56.8675 35.4933C56.6869 35.4944 56.5132 35.4241 56.3845 35.2977C56.2557 35.1713 56.1823 34.9992 56.1803 34.819ZM56.2731 36.338H57.4609V42.1088H56.2689L56.2731 36.338Z" fill="white"/>
<path d="M62.0508 36.3391H63.1827V37.3048H63.2111C63.5273 36.6463 64.1397 36.2402 65.0292 36.2402C66.3044 36.2402 67.0316 37.0523 67.0316 38.3746V42.1089H65.8428V38.606C65.8428 37.7392 65.436 37.2617 64.6118 37.2617C63.7876 37.2617 63.2417 37.8539 63.2417 38.748V42.1142H62.0508V36.3391Z" fill="white"/>
<path d="M71.5508 36.3391H72.6827V37.3048H72.7101C73.0263 36.6463 73.6386 36.2402 74.5281 36.2402C75.8034 36.2402 76.5306 37.0523 76.5306 38.3746V42.1089H75.3449V38.606C75.3449 37.7392 74.9381 37.2617 74.1139 37.2617C73.2898 37.2617 72.7438 37.8539 72.7438 38.748V42.1142H71.5508V36.3391Z" fill="white"/>
<path d="M80.7988 39.224C80.7988 37.3705 81.8928 36.2344 83.539 36.2344C85.1852 36.2344 86.2792 37.3705 86.2792 39.224C86.2792 41.0775 85.1905 42.2188 83.539 42.2188C81.8875 42.2188 80.7988 41.0827 80.7988 39.224ZM85.0746 39.224C85.0746 37.9459 84.4696 37.2106 83.5411 37.2106C82.6126 37.2106 82.0077 37.9469 82.0077 39.224C82.0077 40.501 82.6126 41.2426 83.5411 41.2426C84.4696 41.2426 85.0746 40.5073 85.0746 39.224Z" fill="white"/>
<path d="M93.2857 42.1087H92.0115L89.929 36.3389H91.1937L92.6439 40.9516H92.666L94.1172 36.3389H95.3588L93.2857 42.1087Z" fill="white"/>
<path d="M99.0635 40.4686C99.0635 39.4598 99.8381 38.8402 101.212 38.7634L102.793 38.6698V38.2259C102.793 37.5842 102.359 37.2003 101.634 37.2003C100.948 37.2003 100.519 37.5295 100.415 38.0418H99.2943C99.3607 36.9994 100.251 36.2314 101.679 36.2314C103.081 36.2314 103.977 36.9678 103.977 38.1249V42.1012H102.839V41.1545H102.811C102.476 41.7961 101.746 42.2064 100.987 42.2064C99.855 42.2075 99.0635 41.5058 99.0635 40.4686ZM102.795 39.9479V39.4924L101.372 39.5808C100.663 39.6302 100.262 39.9426 100.262 40.436C100.262 40.9294 100.683 41.2702 101.316 41.2702C102.146 41.2702 102.795 40.699 102.795 39.9479Z" fill="white"/>
<path d="M110.04 34.9738V36.3413H111.138V37.2796H110.04V40.4606C110.04 40.9593 110.259 41.1844 110.743 41.1844C110.873 41.1853 111.004 41.1761 111.133 41.157V42.0953C110.916 42.1356 110.695 42.1539 110.474 42.15C109.303 42.15 108.847 41.7061 108.847 40.5921V37.2775H108.004V36.3392H108.847V34.9717L110.04 34.9738Z" fill="white"/>
<path d="M115.433 34.8188C115.43 34.6821 115.468 34.5476 115.542 34.4326C115.617 34.3176 115.723 34.2273 115.849 34.1733C115.975 34.1192 116.114 34.1038 116.249 34.129C116.384 34.1542 116.508 34.219 116.605 34.3149C116.703 34.4109 116.77 34.5337 116.797 34.6678C116.825 34.8018 116.811 34.9409 116.759 35.0674C116.707 35.1938 116.618 35.3019 116.504 35.3777C116.39 35.4535 116.256 35.4937 116.119 35.4931C115.938 35.4939 115.765 35.4235 115.637 35.2972C115.508 35.1708 115.435 34.9989 115.433 34.8188ZM115.525 36.3378H116.712V42.1087H115.525V36.3378Z" fill="white"/>
<path d="M121.045 39.224C121.045 37.3705 122.139 36.2344 123.785 36.2344C125.431 36.2344 126.525 37.3705 126.525 39.224C126.525 41.0775 125.437 42.2188 123.785 42.2188C122.134 42.2188 121.045 41.0827 121.045 39.224ZM125.32 39.224C125.32 37.9459 124.716 37.2106 123.787 37.2106C122.859 37.2106 122.254 37.9469 122.254 39.224C122.254 40.501 122.859 41.2426 123.787 41.2426C124.716 41.2426 125.32 40.5073 125.32 39.224Z" fill="white"/>
<path d="M130.823 36.3391H131.955V37.3048H131.983C132.299 36.6463 132.911 36.2402 133.802 36.2402C135.076 36.2402 135.804 37.0523 135.804 38.3746V42.1089H134.611V38.606C134.611 37.7392 134.204 37.2617 133.38 37.2617C132.556 37.2617 132.01 37.8539 132.01 38.748V42.1142H130.823V36.3391Z" fill="white"/>
<path d="M142.486 36.2344C143.772 36.2344 144.673 36.9528 144.711 37.9785H143.596C143.541 37.4525 143.117 37.1369 142.452 37.1369C141.809 37.1369 141.381 37.4525 141.381 37.9048C141.381 38.2614 141.667 38.5034 142.266 38.6507L143.238 38.8758C144.398 39.1556 144.844 39.5942 144.844 40.4442C144.844 41.4961 143.859 42.222 142.442 42.222C141.072 42.222 140.166 41.514 140.073 40.4558H141.25C141.342 41.0091 141.777 41.3162 142.496 41.3162C143.216 41.3162 143.65 41.0206 143.65 40.5546C143.65 40.1865 143.431 39.9834 142.826 39.8299L141.793 39.5785C140.749 39.326 140.222 38.7832 140.222 37.9764C140.222 36.9423 141.134 36.2344 142.486 36.2344Z" fill="white"/>
<path d="M160.244 39.2244C160.244 41.0506 159.283 42.2077 157.832 42.2077C157.003 42.2077 156.343 41.8016 156.013 41.1557H155.986V44.0138H154.799V36.3348H155.948V37.3278H155.97C156.31 36.664 156.975 36.2422 157.81 36.2422C159.277 36.2464 160.244 37.3983 160.244 39.2244ZM159.025 39.2244C159.025 38.0178 158.437 37.2447 157.497 37.2447C156.59 37.2447 155.98 38.0336 155.98 39.2244C155.98 40.4152 156.585 41.2041 157.497 41.2041C158.437 41.2041 159.026 40.4362 159.026 39.2244H159.025Z" fill="white"/>
<path d="M167.247 42.1087H165.973L163.89 36.3389H165.155L166.606 40.9516H166.627L168.078 36.3389H169.32L167.247 42.1087Z" fill="white"/>
<path d="M174.91 34.9738V36.3413H176.009V37.2796H174.91V40.4606C174.91 40.9593 175.13 41.1844 175.613 41.1844C175.744 41.1852 175.874 41.1761 176.004 41.157V42.0953C175.786 42.1356 175.565 42.1539 175.344 42.15C174.173 42.15 173.718 41.7061 173.718 40.5921V37.2775H172.875V36.3392H173.718V34.9717L174.91 34.9738Z" fill="white"/>
<path d="M180.526 41.4509C180.526 41.3088 180.568 41.1699 180.647 41.0517C180.727 40.9336 180.839 40.8415 180.971 40.7871C181.102 40.7327 181.247 40.7185 181.386 40.7462C181.526 40.7739 181.654 40.8424 181.755 40.9429C181.856 41.0433 181.924 41.1714 181.952 41.3107C181.98 41.4501 181.965 41.5946 181.911 41.7258C181.857 41.8571 181.764 41.9693 181.646 42.0483C181.528 42.1272 181.388 42.1694 181.246 42.1694C181.151 42.1701 181.057 42.152 180.97 42.1161C180.882 42.0802 180.802 42.0273 180.735 41.9605C180.668 41.8936 180.615 41.8141 180.58 41.7267C180.544 41.6392 180.525 41.5454 180.526 41.4509Z" fill="white"/>
<path d="M186.734 34.1953H187.921V42.109H186.734V34.1953Z" fill="white"/>
<path d="M194.055 34.9738V36.3413H195.155V37.2796H194.055V40.4606C194.055 40.9593 194.276 41.1844 194.759 41.1844C194.89 41.1853 195.02 41.1761 195.149 41.157V42.0953C194.932 42.1357 194.711 42.154 194.49 42.15C193.32 42.15 192.863 41.7061 192.863 40.5921V37.2775H192.02V36.3392H192.863V34.9717L194.055 34.9738Z" fill="white"/>
<path d="M199.108 39.2246C199.108 37.4037 200.075 36.2466 201.526 36.2466C202.355 36.2466 203.015 36.6673 203.339 37.2985H203.362V34.1953H204.556V42.109H203.396V41.1307H203.374C203.034 41.7892 202.374 42.211 201.534 42.211C200.075 42.2078 199.108 41.0455 199.108 39.2246ZM200.322 39.2246C200.322 40.4417 200.91 41.2043 201.85 41.2043C202.762 41.2043 203.372 40.4311 203.372 39.2246C203.372 38.018 202.762 37.2449 201.85 37.2449C200.91 37.2449 200.322 38.0128 200.322 39.2246Z" fill="white"/>
<path d="M209.314 41.4509C209.314 41.3088 209.356 41.1699 209.435 41.0517C209.514 40.9336 209.627 40.8415 209.758 40.7871C209.89 40.7327 210.035 40.7185 210.174 40.7462C210.314 40.7739 210.442 40.8424 210.543 40.9429C210.643 41.0433 210.712 41.1714 210.74 41.3107C210.768 41.4501 210.753 41.5946 210.699 41.7258C210.644 41.8571 210.552 41.9693 210.434 42.0483C210.315 42.1272 210.176 42.1694 210.034 42.1694C209.939 42.1699 209.845 42.1517 209.758 42.1158C209.67 42.0799 209.591 42.027 209.524 41.9602C209.457 41.8933 209.404 41.8139 209.368 41.7265C209.332 41.6391 209.313 41.5454 209.314 41.4509Z" fill="white"/>
<path d="M0 0.954102H30.8219C34.1761 0.954102 37.393 2.28404 39.7648 4.65133C42.1365 7.01863 43.469 10.2294 43.469 13.5772V44.3987H12.6471C9.29285 44.3987 6.07602 43.0688 3.70424 40.7015C1.33245 38.3342 0 35.1235 0 31.7756L0 0.954102Z" fill="white"/>
<path d="M30.4446 3.83008H12.94C7.34807 3.83008 2.81494 8.35463 2.81494 13.936V31.4074C2.81494 36.9888 7.34807 41.5133 12.94 41.5133H30.4446C36.0364 41.5133 40.5696 36.9888 40.5696 31.4074V13.936C40.5696 8.35463 36.0364 3.83008 30.4446 3.83008Z" fill="#2C2C2C"/>
<path d="M17.4571 24.4544C17.4571 25.5368 17.5035 26.5782 18.0368 27.5302C18.1551 27.7355 18.3134 27.9151 18.5024 28.0584C18.6914 28.2016 18.9072 28.3057 19.1371 28.3644C20.0008 28.6382 20.9267 28.6481 21.7961 28.3928C22.1529 28.2971 22.4811 28.1163 22.7524 27.866C23.0238 27.6157 23.2301 27.3034 23.3538 26.9559C23.6479 26.1859 23.67 25.378 23.7501 24.5711C23.8629 23.4624 23.9282 22.3358 24.1864 21.2586C24.6354 19.3841 25.937 18.1386 27.5727 17.2245C28.7436 16.5691 30.0378 16.3104 31.3668 16.2483C32.3617 16.202 33.3608 16.2399 34.382 16.2399V24.082C34.0227 24.1283 33.6664 24.1693 33.3123 24.2219C32.446 24.3523 31.8832 24.8457 31.7083 25.6946C31.5365 26.5277 31.4416 27.3777 31.3046 28.2192C30.9104 30.6387 30.0093 32.7993 28.1028 34.4509C26.8381 35.5501 25.3373 36.1339 23.7048 36.3822C21.9567 36.6658 20.1764 36.693 18.4204 36.4632C14.3502 35.8952 10.9555 32.6815 10.2441 28.6495C10.0414 27.4972 9.93564 26.3301 9.92791 25.1602C9.89523 19.8469 9.91737 14.5358 9.90894 9.22036C9.90894 8.90478 9.9943 8.81536 10.3115 8.81642C12.5964 8.82799 14.8813 8.81642 17.162 8.81642C17.2484 8.81642 17.3338 8.83009 17.4487 8.84061V16.4997C17.6026 16.5113 17.729 16.5281 17.8544 16.5281C18.745 16.5281 19.6345 16.5365 20.524 16.5281C20.7622 16.5281 20.8529 16.5954 20.8529 16.8437C20.8465 19.2757 20.8465 21.7078 20.8529 24.1399C20.8529 24.3692 20.7759 24.4407 20.5483 24.4376C19.6482 24.427 18.7471 24.4376 17.846 24.4376C17.7259 24.4376 17.6078 24.447 17.4571 24.4544Z" fill="white"/>
<path d="M61.8927 12.2295H57.7961C57.7755 12.2267 57.7546 12.2286 57.7349 12.2353C57.7153 12.2419 57.6975 12.253 57.6828 12.2677C57.6682 12.2824 57.6572 12.3003 57.6507 12.3199C57.6442 12.3396 57.6424 12.3605 57.6453 12.381V22.4132C57.6453 23.4735 57.8853 24.2372 58.3652 24.7043C58.8451 25.1714 59.5912 25.4045 60.6037 25.4038H61.7029C61.9559 25.4038 62.0824 25.5311 62.0824 25.7825V28.1304C62.0824 28.3829 61.9559 28.5091 61.7029 28.5091C60.8935 28.5586 60.3128 28.5849 59.9587 28.5849C58.0364 28.5849 56.5886 28.2377 55.6155 27.5435C54.6424 26.8492 54.1576 25.5683 54.1611 23.7008V12.381C54.1639 12.3604 54.1619 12.3395 54.1552 12.3199C54.1486 12.3002 54.1375 12.2824 54.1228 12.2677C54.1081 12.253 54.0902 12.242 54.0705 12.2353C54.0509 12.2287 54.0299 12.2267 54.0093 12.2295H51.6907C51.4378 12.2295 51.3113 12.1043 51.3113 11.8508V9.61754C51.3113 9.36613 51.4378 9.23885 51.6907 9.23885H54.0093C54.0299 9.24163 54.0509 9.23962 54.0705 9.23299C54.0902 9.22636 54.1081 9.21529 54.1228 9.20062C54.1375 9.18596 54.1486 9.16812 54.1552 9.14847C54.1619 9.12883 54.1639 9.10792 54.1611 9.08737V4.62088C54.1611 4.36842 54.2865 4.24219 54.5394 4.24219H57.2712C57.5231 4.24219 57.6506 4.36842 57.6506 4.62088V9.08737C57.6476 9.10786 57.6495 9.12875 57.656 9.14841C57.6625 9.16807 57.6735 9.18595 57.6881 9.20064C57.7027 9.21532 57.7206 9.22642 57.7402 9.23305C57.7599 9.23969 57.7808 9.24167 57.8013 9.23885H61.8979C62.1509 9.23885 62.2773 9.36613 62.2773 9.61754V11.8508C62.2763 12.1043 62.1456 12.2295 61.8927 12.2295Z" fill="white"/>
<path d="M82.0331 19.953C82.0331 20.2055 81.9066 20.3317 81.6536 20.3317H69.5546C69.534 20.3287 69.513 20.3305 69.4932 20.3371C69.4734 20.3436 69.4554 20.3547 69.4407 20.3694C69.4259 20.3841 69.4148 20.4021 69.4083 20.4218C69.4017 20.4416 69.3999 20.4626 69.4029 20.4832C69.4029 21.3416 69.4787 21.9976 69.6305 22.4513C69.8798 23.4214 70.4806 24.2647 71.3168 24.8182C72.1648 25.3841 73.2335 25.6671 74.5228 25.6671C76.3946 25.6671 77.8349 24.8957 78.8439 23.3528C78.9704 23.1018 79.1348 23.0639 79.3371 23.2392L81.4987 24.6783C81.6758 24.8297 81.7137 24.9938 81.6125 25.1706C80.9043 26.3052 79.8992 27.2011 78.5973 27.8582C77.2953 28.5153 75.8248 28.8457 74.1856 28.8492C72.3391 28.8492 70.7838 28.4456 69.5198 27.6384C68.2558 26.8312 67.3073 25.6829 66.6743 24.1933C66.0672 22.7038 65.7637 20.899 65.7637 18.7791C65.7637 16.9368 65.9042 15.5363 66.1852 14.5777C66.6405 12.8357 67.5508 11.4601 68.9159 10.4509C70.2811 9.44179 71.9354 8.93861 73.8789 8.94142C76.4329 8.94142 78.3419 9.57889 79.6059 10.8538C80.8699 12.1288 81.6428 14.0026 81.9245 16.4753C82.0279 17.6315 82.0642 18.7927 82.0331 19.953ZM71.185 12.8925C70.4749 13.4376 69.9678 14.2041 69.7443 15.07C69.5448 15.7601 69.4301 16.4718 69.4029 17.1896C69.3999 17.2102 69.4017 17.2312 69.4083 17.2509C69.4148 17.2707 69.4259 17.2886 69.4407 17.3033C69.4554 17.318 69.4734 17.3291 69.4932 17.3357C69.513 17.3422 69.534 17.3441 69.5546 17.3411H78.24C78.2606 17.3441 78.2817 17.3422 78.3015 17.3357C78.3212 17.3291 78.3392 17.318 78.354 17.3033C78.3687 17.2886 78.3798 17.2707 78.3864 17.2509C78.3929 17.2312 78.3948 17.2102 78.3918 17.1896C78.3412 16.3565 78.2653 15.7379 78.1641 15.334C77.9431 14.4008 77.416 13.5681 76.6665 12.9682C75.9203 12.3763 74.9911 12.0797 73.8789 12.0783C72.7912 12.0783 71.8933 12.3497 71.185 12.8925Z" fill="white"/>
<path d="M89.4295 27.3502C88.0636 26.3824 87.1277 25.065 86.6219 23.3981C86.2424 22.2374 86.0527 20.7104 86.0527 18.8169C86.0527 17.0763 86.2424 15.5496 86.6219 14.2368C87.0949 12.6656 88.0919 11.3031 89.4474 10.3752C90.8259 9.41933 92.4634 8.94141 94.3597 8.94141C96.2561 8.94141 97.9125 9.42109 99.329 10.3804C100.744 11.3398 101.667 12.5513 102.098 14.0149C102.249 14.4173 102.351 14.8366 102.401 15.2635C102.401 15.4662 102.287 15.5924 102.06 15.6422L99.2141 16.063H99.1382C98.9612 16.063 98.8347 15.9494 98.7588 15.7221L98.645 15.1173C98.4426 14.2589 97.9508 13.5394 97.1695 12.9587C96.3882 12.3781 95.4397 12.0877 94.3239 12.0877C93.2363 12.0877 92.3134 12.3781 91.5553 12.9587C90.8037 13.5308 90.2807 14.3511 90.0798 15.273C89.8521 16.1846 89.7383 17.3835 89.7383 18.8695C89.7383 20.3338 89.8521 21.52 90.0798 22.4282C90.332 23.438 90.8312 24.2333 91.5774 24.814C92.3236 25.3946 93.2384 25.679 94.3218 25.6671C95.4347 25.6671 96.3896 25.3771 97.1864 24.7971C97.956 24.2565 98.4912 23.4444 98.684 22.525C98.6964 22.5129 98.7048 22.4975 98.7082 22.4806C98.7116 22.4637 98.7098 22.4461 98.703 22.4303C98.6963 22.4144 98.6945 22.3969 98.6979 22.38C98.7013 22.3632 98.7097 22.3477 98.7219 22.3356V22.1841C98.7317 22.1398 98.7509 22.0981 98.7783 22.0618C98.8056 22.0256 98.8405 21.9956 98.8805 21.9741C98.9205 21.9525 98.9648 21.9398 99.0101 21.9368C99.0555 21.9339 99.101 21.9407 99.1435 21.9569L101.989 22.4113C102.191 22.4629 102.293 22.5628 102.293 22.7143V22.8658C102.28 23.1526 102.215 23.4347 102.103 23.6989C101.673 25.2417 100.75 26.4785 99.3343 27.4091C97.9185 28.3397 96.2621 28.8064 94.365 28.8092C92.4406 28.8106 90.7954 28.3242 89.4295 27.3502Z" fill="white"/>
<path d="M114.174 18.833H108.405V20.3225H114.174V18.833Z" fill="white"/>
<path d="M122.297 28.3946C121.146 27.9402 120.255 27.3157 119.623 26.5211C119.011 25.781 118.675 24.8512 118.675 23.8913V23.4758C118.675 23.2233 118.801 23.0971 119.054 23.0971H121.785C122.038 23.0971 122.164 23.2233 122.164 23.4758V23.6683C122.164 24.3738 122.551 24.992 123.324 25.5228C124.097 26.0537 125.076 26.3188 126.263 26.3181C127.401 26.3181 128.323 26.0727 129.032 25.5818C129.74 25.0909 130.094 24.4664 130.094 23.7083C130.094 22.9761 129.765 22.427 129.108 22.061C128.45 21.6949 127.388 21.3092 125.922 20.9038C124.688 20.5715 123.477 20.1597 122.297 19.671C121.35 19.2737 120.506 18.6648 119.832 17.8911C119.162 17.1197 118.827 16.1291 118.827 14.9194C118.827 13.2286 119.49 11.8846 120.817 10.8874C122.145 9.89014 123.909 9.39188 126.109 9.39258C127.575 9.39258 128.871 9.62611 129.997 10.0932C131.123 10.5602 131.989 11.21 132.595 12.0424C133.195 12.853 133.514 13.8361 133.506 14.8437V14.9573C133.506 15.2097 133.378 15.336 133.126 15.336H130.47C130.217 15.336 130.092 15.2097 130.092 14.9573V14.8437C130.092 14.1122 129.731 13.5004 129.011 13.0081C128.29 12.5158 127.31 12.2703 126.071 12.2717C124.958 12.2717 124.054 12.4863 123.359 12.9155C122.665 13.3447 122.317 13.925 122.316 14.6564C122.316 15.3886 122.651 15.944 123.322 16.3227C123.992 16.7014 125.073 17.1036 126.566 17.5292C127.806 17.86 129.028 18.2589 130.225 18.7242C131.178 19.1019 132.029 19.6983 132.709 20.4652C133.392 21.2366 133.733 22.2401 133.732 23.4758C133.732 25.1918 133.056 26.5544 131.703 27.5636C130.351 28.5727 128.549 29.0777 126.299 29.0784C124.781 29.077 123.447 28.849 122.297 28.3946Z" fill="white"/>
<path d="M153.722 20.2942C153.722 20.5467 153.594 20.6718 153.342 20.6718H141.242C141.222 20.6691 141.201 20.6711 141.181 20.6777C141.161 20.6843 141.143 20.6954 141.129 20.7101C141.114 20.7247 141.103 20.7426 141.096 20.7622C141.09 20.7819 141.088 20.8028 141.09 20.8233C141.09 21.6817 141.166 22.3381 141.318 22.7925C141.568 23.7622 142.168 24.6051 143.004 25.1583C143.848 25.7264 144.916 26.0104 146.209 26.0104C148.08 26.0104 149.521 25.2407 150.53 23.7014C150.656 23.4489 150.82 23.4111 151.023 23.5878L153.185 25.0258C153.361 25.1772 153.399 25.3413 153.299 25.5181C152.591 26.6542 151.586 27.55 150.284 28.2057C148.982 28.8614 147.509 29.1896 145.865 29.1903C144.018 29.1903 142.463 28.7864 141.199 27.9785C139.935 27.1706 138.987 26.0223 138.353 24.5335C137.746 23.0453 137.443 21.2409 137.443 19.1202C137.443 17.2787 137.583 15.8778 137.864 14.9178C138.32 13.1772 139.23 11.8016 140.595 10.7911C141.96 9.78052 143.617 9.27594 145.564 9.27735C148.118 9.27735 150.027 9.91446 151.291 11.1887C152.555 12.4629 153.328 14.3371 153.61 16.8113C153.714 17.9692 153.751 19.132 153.722 20.2942ZM142.874 13.2336C142.164 13.7786 141.656 14.5446 141.432 15.4101C141.232 16.1002 141.118 16.812 141.09 17.5297C141.087 17.5503 141.089 17.5713 141.096 17.5911C141.102 17.6108 141.114 17.6288 141.128 17.6435C141.143 17.6582 141.161 17.6693 141.181 17.6758C141.201 17.6824 141.222 17.6842 141.242 17.6812H149.929C149.949 17.6842 149.97 17.6824 149.99 17.6758C150.01 17.6693 150.028 17.6582 150.043 17.6435C150.057 17.6288 150.068 17.6108 150.075 17.5911C150.082 17.5713 150.083 17.5503 150.08 17.5297C150.057 16.9061 149.983 16.2854 149.857 15.6741C149.636 14.7406 149.109 13.9077 148.358 13.3083C147.612 12.715 146.683 12.4184 145.571 12.4184C144.48 12.4191 143.581 12.6909 142.874 13.2336Z" fill="white"/>
<path d="M171.851 11.113C173.066 12.3122 173.673 13.9339 173.673 15.9781V28.4708C173.673 28.7233 173.545 28.8495 173.293 28.8495H170.409C170.156 28.8495 170.029 28.7233 170.029 28.4708V16.6976C170.029 15.4353 169.662 14.4132 168.929 13.6313C168.195 12.8493 167.222 12.458 166.009 12.4573C164.82 12.4573 163.846 12.8486 163.088 13.6313C162.33 14.4139 161.951 15.4234 161.95 16.6598V28.4708C161.95 28.7233 161.823 28.8495 161.57 28.8495H158.688C158.435 28.8495 158.309 28.7233 158.309 28.4708V9.95689C158.309 9.70442 158.435 9.57819 158.688 9.57819H161.57C161.823 9.57819 161.95 9.70442 161.95 9.95689V11.3244C161.948 11.3467 161.953 11.369 161.963 11.3889C161.973 11.4089 161.988 11.4259 162.007 11.438C162.045 11.4632 162.076 11.4517 162.102 11.4001C163.188 10.013 164.794 9.31907 166.919 9.31836C168.994 9.31626 170.638 9.91446 171.851 11.113Z" fill="white"/>
<path d="M181.656 28.3946C180.505 27.9402 179.614 27.3157 178.982 26.5211C178.37 25.781 178.034 24.8512 178.034 23.8913V23.4758C178.034 23.2233 178.16 23.0971 178.413 23.0971H181.144C181.397 23.0971 181.523 23.2233 181.523 23.4758V23.6683C181.523 24.3738 181.91 24.992 182.683 25.5228C183.455 26.0537 184.435 26.3188 185.622 26.3181C186.759 26.3181 187.682 26.0727 188.391 25.5818C189.1 25.0909 189.454 24.4664 189.453 23.7083C189.453 22.9761 189.124 22.427 188.466 22.061C187.809 21.6949 186.747 21.3092 185.28 20.9038C184.047 20.5715 182.836 20.1597 181.656 19.671C180.709 19.2737 179.865 18.6648 179.191 17.8911C178.521 17.1197 178.185 16.1291 178.185 14.9194C178.185 13.2286 178.849 11.8846 180.176 10.8874C181.504 9.89014 183.267 9.39188 185.468 9.39258C186.934 9.39258 188.23 9.62611 189.356 10.0932C190.482 10.5602 191.348 11.21 191.954 12.0424C192.554 12.853 192.873 13.8361 192.864 14.8437V14.9573C192.864 15.2097 192.737 15.336 192.485 15.336H189.83C189.576 15.336 189.451 15.2097 189.451 14.9573V14.8437C189.451 14.1122 189.09 13.5004 188.37 13.0081C187.649 12.5158 186.669 12.2703 185.43 12.2717C184.317 12.2717 183.413 12.4863 182.718 12.9155C182.023 13.3447 181.676 13.925 181.675 14.6564C181.675 15.3886 182.01 15.944 182.68 16.3227C183.351 16.7014 184.432 17.105 185.923 17.5335C187.164 17.8627 188.386 18.2603 189.584 18.7242C190.537 19.1019 191.388 19.6983 192.068 20.4652C192.751 21.2366 193.092 22.2401 193.092 23.4758C193.092 25.1918 192.416 26.5544 191.062 27.5636C189.709 28.5727 187.908 29.0777 185.658 29.0784C184.14 29.077 182.806 28.849 181.656 28.3946Z" fill="white"/>
<path d="M213.081 20.2938C213.081 20.5463 212.953 20.6715 212.702 20.6715H200.601C200.58 20.6677 200.558 20.6692 200.537 20.6758C200.517 20.6823 200.498 20.6938 200.482 20.7092C200.467 20.7246 200.456 20.7434 200.449 20.7642C200.443 20.7849 200.442 20.8069 200.445 20.8282C200.445 21.6866 200.521 22.343 200.673 22.7974C200.923 23.7671 201.523 24.61 202.359 25.1632C203.203 25.7312 204.271 26.0153 205.564 26.0153C207.435 26.0153 208.876 25.2456 209.885 23.7063C210.012 23.4538 210.175 23.4159 210.379 23.5927L212.54 25.0306C212.717 25.1821 212.751 25.3462 212.654 25.5229C211.946 26.659 210.941 27.5549 209.639 28.2106C208.337 28.8663 206.864 29.1945 205.22 29.1952C203.373 29.1952 201.818 28.7913 200.554 27.9834C199.29 27.1755 198.341 26.0272 197.708 24.5383C197.101 23.0502 196.798 21.2458 196.798 19.1251C196.798 17.2835 196.938 15.8827 197.219 14.9227C197.675 13.1821 198.585 11.8065 199.951 10.796C201.317 9.7854 202.973 9.28083 204.919 9.28223C207.473 9.28223 209.383 9.91935 210.647 11.1936C211.912 12.4678 212.685 14.342 212.966 16.8161C213.071 17.9722 213.109 19.1334 213.081 20.2938ZM202.237 13.2333C201.527 13.7783 201.02 14.5442 200.795 15.4097C200.596 16.0998 200.481 16.8116 200.454 17.5293C200.451 17.5499 200.453 17.5709 200.459 17.5907C200.466 17.6104 200.477 17.6284 200.492 17.6431C200.506 17.6578 200.524 17.6689 200.544 17.6754C200.564 17.682 200.585 17.6838 200.606 17.6808H209.292C209.313 17.6838 209.334 17.682 209.354 17.6754C209.373 17.6689 209.391 17.6578 209.406 17.6431C209.421 17.6284 209.432 17.6104 209.438 17.5907C209.445 17.5709 209.447 17.5499 209.444 17.5293C209.42 16.9059 209.344 16.2856 209.216 15.6748C208.995 14.7412 208.468 13.9083 207.718 13.309C206.971 12.7157 206.042 12.4191 204.93 12.4191C203.837 12.4191 202.94 12.6905 202.237 13.2333Z" fill="white"/>
</g>
<defs>
<clipPath id="clip0_1971_56871">
<rect width="215" height="46.39" fill="white"/>
</clipPath>
</defs>
</svg>
